<?xml version="1.0" encoding="UTF-8" standalone="no"?>
<!-- Created with Inkscape (http://www.inkscape.org/) -->

<svg
   width="130.04799mm"
   height="130.04799mm"
   viewBox="0 0 130.04799 130.04799"
   version="1.1"
   id="svg9218"
   sodipodi:docname="com.github.EbonJaeger.recipebook.svg"
   inkscape:version="1.1.2 (0a00cf5339, 2022-02-04)"
   xmlns:inkscape="http://www.inkscape.org/namespaces/inkscape"
   xmlns:sodipodi="http://sodipodi.sourceforge.net/DTD/sodipodi-0.dtd"
   xmlns="http://www.w3.org/2000/svg"
   xmlns:svg="http://www.w3.org/2000/svg">
  <sodipodi:namedview
     id="namedview9220"
     pagecolor="#ffffff"
     bordercolor="#666666"
     borderopacity="1.0"
     inkscape:pageshadow="2"
     inkscape:pageopacity="0.0"
     inkscape:pagecheckerboard="0"
     inkscape:document-units="mm"
     showgrid="false"
     inkscape:zoom="1.2953002"
     inkscape:cx="165.59867"
     inkscape:cy="259.01331"
     inkscape:window-width="1920"
     inkscape:window-height="946"
     inkscape:window-x="0"
     inkscape:window-y="32"
     inkscape:window-maximized="1"
     inkscape:current-layer="layer1"
     inkscape:snap-object-midpoints="true"
     inkscape:snap-center="true" />
  <defs
     id="defs9215" />
  <g
     inkscape:label="Layer 1"
     inkscape:groupmode="layer"
     id="layer1"
     transform="translate(-38.580837,-23.821235)">
    <g
       id="g1560"
       transform="matrix(0.32133594,0,0,0.30851003,24.643447,13.098267)">
      <path
         style="fill:#834e00;stroke-width:0.96"
         d="m 89.286853,420.87073 c -4.384142,-1.90121 -7.395809,-4.78274 -9.94028,-9.51074 -2.066575,-3.84 -2.066575,-3.84 -2.317493,-165.66836 C 76.778162,83.863276 76.778162,83.863276 79.022782,79.611638 c 1.234541,-2.338402 4.08415,-5.54764 6.332466,-7.131639 l 4.087845,-2.88 42.158447,-0.269031 42.15846,-0.269029 v 10.109029 10.10903 l -8.69951,0.194298 c -4.09164,0.09138 -8.67204,0.473567 -10.82652,2.628032 -3.37381,3.373812 -3.26369,9.962932 0.11012,13.336732 2.15448,2.15449 2.87937,2.54467 10.81546,2.78283 L 173.76,108.48 v 7.2 7.2 l -8.71307,0.29015 c -7.93527,0.26425 -8.64039,0.30003 -10.79487,2.45452 -3.37381,3.3738 -3.2641,10.4161 0.10971,13.78991 2.15448,2.15449 2.88767,1.8687 10.81811,2.25138 L 173.76,142.08 v 6.72 6.72 l -8.74018,0.20838 c -7.93742,0.18925 -8.63451,0.61145 -10.78899,2.76543 -3.37381,3.37381 -3.24249,10.35441 0.13132,13.72822 2.15448,2.15449 2.80262,1.92798 10.73761,2.20052 L 173.76,174.72 v 6.72 6.72 l -8.72658,0.32777 c -7.93408,0.298 -8.87892,0.61484 -11.0334,2.76933 -3.37381,3.37381 -2.85856,10.13879 0.51521,13.5126 2.15448,2.15449 2.63752,1.96524 10.57157,2.26386 L 173.76,207.36 v 6.72 6.72 l -8.71466,0.27865 c -7.93562,0.25374 -8.70167,0.46789 -10.85615,2.62238 -3.37381,3.37381 -3.06151,10.36037 0.3123,13.73418 2.15448,2.15449 2.66352,1.98862 10.59841,2.26411 L 173.76,240 v 6.71999 6.72 l -8.78826,0.62982 c -7.91936,0.56756 -8.519,0.76095 -10.67348,2.91544 -3.37381,3.37381 -3.33355,8.86178 0.0403,12.23559 2.15448,2.15449 2.81415,2.23903 10.73385,2.8018 l 8.68763,0.61735 v 6.72 6.72 l -8.66156,0.45771 c -7.92861,0.41897 -8.63586,0.87891 -10.79034,3.0334 -3.37381,3.37381 -3.04511,9.06509 0.3287,12.4389 2.15448,2.15449 2.45288,2.26225 10.37808,2.74134 l 8.74508,0.52865 v 6.72 6.72 l -8.84761,0.6098 c -7.92088,0.54592 -8.72155,-0.40792 -10.87603,1.74657 -1.88468,1.88467 -2.35636,3.33468 -2.35636,7.24363 0,3.90896 0.47168,5.35896 2.35636,7.24364 2.15448,2.15448 3.15887,1.33531 11.0835,1.82378 l 8.64014,0.53258 v 6.72 6.72 l -8.73219,0.29077 c -7.93527,0.26424 -8.83697,-0.0889 -10.99145,2.0656 -1.88468,1.88467 -2.35636,3.33468 -2.35636,7.24363 0,3.90896 0.47168,5.35896 2.35636,7.24363 2.15448,2.15449 3.21621,1.69587 11.14953,2.0133 l 8.57411,0.34307 v 6.72 6.72 l -8.72906,0.27102 c -7.93585,0.2464 -8.8401,-0.0691 -10.99458,2.08535 -1.88468,1.88467 -2.35636,3.33468 -2.35636,7.24363 0,3.90896 0.47168,5.35896 2.35636,7.24363 2.15448,2.15449 3.13335,1.56363 11.06398,1.94258 l 8.65966,0.41379 v 9.6 9.6 l -40.56,-0.0375 c -34.053122,-0.0316 -41.097933,-0.2709 -43.913147,-1.49173 z M 191.04,401.87753 c 0,-0.19934 0.756,-0.95534 1.68,-1.68 1.52261,-1.19411 1.55657,-1.16016 0.36245,0.36246 -1.25411,1.59912 -2.04245,2.10766 -2.04245,1.31754 z m 0.83754,-15.71754 c -1.19412,-1.52262 -1.16016,-1.55657 0.36246,-0.36246 1.59912,1.25412 2.10766,2.04246 1.31754,2.04246 -0.19935,0 -0.95535,-0.756 -1.68,-1.68 z M 191.04,369.23753 c 0,-0.19934 0.756,-0.95534 1.68,-1.68 1.52261,-1.19411 1.55657,-1.16016 0.36245,0.36246 -1.25411,1.59912 -2.04245,2.10766 -2.04245,1.31754 z m 0.83754,-15.71754 c -1.19412,-1.52261 -1.16016,-1.55657 0.36246,-0.36245 0.924,0.72465 1.68,1.48065 1.68,1.68 0,0.79011 -0.78835,0.28157 -2.04246,-1.31755 z M 191.04,336.59754 c 0,-0.19935 0.756,-0.95535 1.68,-1.68 1.52261,-1.19412 1.55657,-1.16016 0.36245,0.36245 -1.25411,1.59912 -2.04245,2.10766 -2.04245,1.31755 z m 0.83754,-15.71755 c -1.19412,-1.52261 -1.16016,-1.55657 0.36246,-0.36245 0.924,0.72465 1.68,1.48065 1.68,1.68 0,0.79011 -0.78835,0.28157 -2.04246,-1.31755 z M 191.04,303.95754 c 0,-0.19935 0.756,-0.95535 1.68,-1.68 1.52261,-1.19412 1.55657,-1.16016 0.36245,0.36245 -1.25411,1.59912 -2.04245,2.10766 -2.04245,1.31755 z m 0.83754,-15.71755 c -1.19412,-1.52261 -1.16016,-1.55657 0.36246,-0.36245 0.924,0.72465 1.68,1.48065 1.68,1.68 0,0.79011 -0.78835,0.28157 -2.04246,-1.31755 z M 191.04,271.31754 c 0,-0.19935 0.756,-0.95535 1.68,-1.68 1.52261,-1.19412 1.55657,-1.16016 0.36245,0.36245 -1.25411,1.59912 -2.04245,2.10767 -2.04245,1.31755 z m 0.83754,-15.71755 c -1.19412,-1.52261 -1.16016,-1.55657 0.36246,-0.36245 1.59912,1.25411 2.10766,2.04245 1.31754,2.04245 -0.19935,0 -0.95535,-0.756 -1.68,-1.68 z M 191.04,238.67754 c 0,-0.19935 0.756,-0.95535 1.68,-1.68 1.52261,-1.19412 1.55657,-1.16016 0.36245,0.36246 -1.25411,1.59912 -2.04245,2.10766 -2.04245,1.31754 z M 191.87754,222.96 c -1.19412,-1.52262 -1.16016,-1.55658 0.36246,-0.36246 0.924,0.72465 1.68,1.48065 1.68,1.68 0,0.79012 -0.78835,0.28158 -2.04246,-1.31754 z M 191.04,206.03754 c 0,-0.19935 0.756,-0.95535 1.68,-1.68 1.52261,-1.19412 1.55657,-1.16016 0.36245,0.36246 -1.25411,1.59912 -2.04245,2.10766 -2.04245,1.31754 z M 191.87754,190.32 c -1.19412,-1.52262 -1.16016,-1.55658 0.36246,-0.36246 0.924,0.72465 1.68,1.48065 1.68,1.68 0,0.79012 -0.78835,0.28158 -2.04246,-1.31754 z M 192.72,171.71754 c 169.63253,-86.399681 84.81626,-43.19984 0,0 z M 193.55754,159.36 c 169.07417,-78.161321 84.53708,-39.08066 0,0 z m 109.38417,-13.1586 c -0.52097,-1.36819 -0.4107,-1.47846 0.53741,-0.53741 0.65608,0.65121 0.95104,1.42583 0.65547,1.72141 -0.29558,0.29557 -0.83237,-0.23723 -1.19288,-1.184 z m 3.43677,-1.9614 c -1.04755,-2.44804 -1.02385,-2.50451 0.32591,-0.77652 0.80059,1.02492 1.4556,2.21292 1.4556,2.64 0,1.45912 -0.65119,0.77795 -1.78151,-1.86348 z M 192.72,139.07754 c 169.63253,-64.639681 84.81626,-32.31984 0,0 z m 107.23483,-3.95754 -3.79484,-4.08 4.08,3.79483 c 3.79437,3.52915 4.52115,4.36517 3.79484,4.36517 -0.15685,0 -1.99285,-1.836 -4.08,-4.08 z M 288.95999,132 c -1.32,-0.75458 -1.94257,-1.38728 -1.38348,-1.40598 0.55908,-0.0187 1.85508,0.60024 2.88,1.37545 2.37022,1.79274 1.61316,1.80819 -1.49652,0.0305 z m -5.2732,-2.38901 c -0.33633,-0.54419 0.0491,-0.70512 0.90334,-0.37729 1.66312,0.6382 1.96742,1.3263 0.58652,1.3263 -0.49683,0 -1.16728,-0.42706 -1.48986,-0.94901 z m 5.2732,-1.93099 c -0.86523,-0.55916 -0.98364,-0.93647 -0.29666,-0.9453 0.62884,-0.008 1.41034,0.4173 1.73666,0.9453 0.73661,1.19187 0.40428,1.19187 -1.44,0 z M 192.24,124.67754 c 169.95253,-55.039681 84.97626,-27.519841 0,0 z m -1.2,-17.52 c 0,-0.19934 0.756,-0.95534 1.68,-1.68 1.52261,-1.19411 1.55657,-1.16016 0.36245,0.36246 -1.25411,1.59912 -2.04245,2.10766 -2.04245,1.31754 z m 0.83754,-15.717542 c -1.19412,-1.522614 -1.16016,-1.556569 0.36246,-0.362453 1.59912,1.254115 2.10766,2.042453 1.31754,2.042453 -0.19935,0 -0.95535,-0.756 -1.68,-1.68 z"
         id="path1566"
         sodipodi:nodetypes="ssssscccccsssscccsssscccsssscccsssscccsssscccsssscccsssscccssssscccssssscccsssssccccssssssssssssssssssssssssssssssssssssssssssssssssssssssssssccccssssssssccscssscssccscssscssccssssssss" />
      <path
         style="fill:#cac9c9;stroke-width:0.96"
         d="m 265.39636,353.80362 c -1.88468,-1.88467 -2.35637,-3.33467 -2.35637,-7.24363 0,-3.90895 0.47169,-5.35896 2.35637,-7.24363 2.35636,-2.35637 2.35636,-2.35637 37.39482,-2.35637 23.63434,0 35.79985,0.34692 37.37779,1.06586 5.95678,2.7141 5.95678,14.35419 0,17.06828 -1.57794,0.71895 -13.74345,1.06586 -37.37779,1.06586 -35.03846,0 -35.03846,0 -37.39482,-2.35637 z m -30.72,-38.39999 c -1.88468,-1.88468 -2.35636,-3.33468 -2.35636,-7.24364 0,-3.90895 0.47168,-5.35896 2.35636,-7.24363 2.35636,-2.35637 2.35636,-2.35637 68.11482,-2.35637 46.1484,0 66.45609,0.31786 68.09779,1.06586 2.72288,1.24064 4.47102,4.57743 4.47102,8.53414 0,3.95672 -1.74814,7.29351 -4.47102,8.53414 -1.6417,0.74801 -21.94939,1.06586 -68.09779,1.06586 -65.75846,0 -65.75846,0 -68.11482,-2.35636 z"
         id="path1576" />
      <path
         style="fill:#bda177;stroke-width:0.96"
         d="m 82.48734,416.87999 -2.327342,-2.64 2.64,2.32734 c 1.452,1.28004 2.64,2.46804 2.64,2.64 0,0.75291 -0.777407,0.14014 -2.952658,-2.32734 z M 415.18885,245.28 c 2e-5,-88.176 0.113,-124.10588 0.25108,-79.84419 0.13808,44.26169 0.13807,116.40569 -2e-5,160.31999 -0.13811,43.91431 -0.25108,7.70019 -0.25106,-80.4758 z M 76.308687,244.8 c 0,-86.856 0.113055,-122.388 0.251235,-78.96 0.138179,43.428 0.138179,114.49199 0,157.91999 -0.13818,43.428 -0.251235,7.896 -0.251235,-78.95999 z"
         id="path1574" />
      <path
         style="fill:#f39913;stroke-width:0.96"
         d="m 173.76,412.79999 v -9.6 l 8.29183,-0.31378 c 7.42472,-0.28096 7.55748,-0.51349 9.69164,-2.64766 3.37381,-3.3738 3.35883,-9.63848 -0.015,-13.01228 -2.13416,-2.13417 -2.427,-2.37026 -9.84579,-2.77889 l -8.1227,-0.44739 v -6.72 -6.72 l 8.25456,-0.35499 c 7.42317,-0.31923 7.3315,-0.48923 9.46566,-2.6234 3.37381,-3.3738 3.74129,-9.65172 0.36748,-13.02553 -2.13416,-2.13417 -2.50543,-2.3169 -9.92366,-2.73545 L 173.76,351.35999 v -6.72 -6.72 l 8.22999,-0.22291 c 7.42731,-0.20116 7.6611,-0.69559 9.79526,-2.82975 3.37381,-3.37381 3.39548,-9.6421 0.0217,-13.01591 -2.13416,-2.13416 -2.45231,-2.70403 -9.87955,-2.90759 l -8.1674,-0.22384 v -6.72 -6.72 l 8.24501,-0.48218 c 7.41736,-0.43378 7.49968,-0.51229 9.63384,-2.64645 3.37381,-3.37381 3.5163,-9.21814 0.14249,-12.59195 -2.13416,-2.13416 -2.40315,-2.2463 -9.81013,-2.83111 L 173.76,286.07999 v -6.72 -6.72 l 8.34109,-0.49023 c 7.41723,-0.43593 7.34567,-0.60494 9.47983,-2.7391 1.88468,-1.88468 3.29908,-2.46171 3.29908,-6.37067 0,-3.90895 -1.26998,-4.27864 -3.15466,-6.16331 -2.13416,-2.13416 -2.4577,-2.47185 -9.8734,-2.93323 L 173.76,253.43999 v -6.72 V 240 l 8.09137,-0.60267 c 7.40951,-0.55189 7.64859,-0.34716 9.78275,-2.48132 3.37381,-3.37381 3.52197,-9.69786 0.14816,-13.07167 -2.13416,-2.13416 -2.39129,-2.59586 -9.81826,-2.80895 L 173.76,220.8 v -6.72 -6.72 l 8.31739,-0.3981 c 7.42153,-0.35523 7.44562,-0.42555 9.57978,-2.55971 3.37381,-3.37381 3.43274,-9.88607 0.0589,-13.25988 -2.13416,-2.13416 -2.40042,-2.49429 -9.8268,-2.72727 L 173.76,188.16 v -6.72 -6.72 l 8.25171,-0.20567 c 7.42772,-0.18513 7.54669,-0.45858 9.68085,-2.59274 1.88468,-1.88467 3.18744,-2.89264 3.18744,-6.80159 0,-3.90896 -1.13102,-4.81051 -3.0157,-6.69519 -2.13416,-2.13416 -2.43628,-2.49759 -9.8638,-2.69063 L 173.76,155.52 v -6.72 -6.72 l 7.23698,-0.71053 c 7.39448,-0.72598 8.42584,-0.2222 10.56,-2.35637 3.37381,-3.37381 3.51737,-9.54957 0.14356,-12.92337 -2.13416,-2.13417 -2.38217,-2.63024 -9.80705,-2.90679 L 173.76,122.88 v -7.2 -7.2 l 8.1998,-0.24144 c 7.42681,-0.21868 7.62124,-0.82721 9.7554,-2.96138 3.37381,-3.3738 3.33826,-9.309179 -0.0356,-12.682991 -2.13416,-2.134157 -2.35076,-2.820576 -9.77705,-3.056029 L 173.76,89.279998 v -10.08 -10.079999 h 114.97715 c 114.97714,0 114.97714,0 118.43784,2.351602 1.90338,1.293382 4.37966,4.114685 5.50285,6.269562 2.04215,3.917959 2.04215,3.917959 2.04215,167.575427 v 163.65747 l -2.59275,4.80064 c -1.88649,3.49294 -3.66883,5.32156 -6.5431,6.71296 -3.87702,1.87684 -6.06477,1.91233 -117.88724,1.91233 H 173.76 Z m 168.52363,-58.99637 c 1.88468,-1.88467 2.35636,-3.33467 2.35636,-7.24363 0,-3.90895 -0.47168,-5.35896 -2.35636,-7.24363 -2.35636,-2.35637 -2.35636,-2.35637 -38.57812,-2.35637 -35.86848,0 -36.24344,0.0204 -38.44364,2.08734 -3.11837,2.92956 -3.19699,11.63096 -0.13454,14.89079 2.08735,2.22187 2.08735,2.22187 38.44364,2.22187 36.3563,0 36.3563,0 38.71266,-2.35637 z m 30.71999,-38.39999 c 1.88469,-1.88468 2.35637,-3.33468 2.35637,-7.24364 0,-3.90895 -0.47168,-5.35896 -2.35637,-7.24363 -2.35635,-2.35637 -2.35635,-2.35637 -69.29811,-2.35637 -66.94177,0 -66.94177,0 -69.16364,2.08734 -3.11837,2.92956 -3.19699,11.63096 -0.13454,14.89079 2.08735,2.22187 2.08735,2.22187 69.16364,2.22187 67.0763,0 67.0763,0 69.43265,-2.35636 z m -77.8824,-66.66819 c 6.44929,-1.92954 18.6188,-1.81595 26.95877,0.25165 17.12947,4.24664 26.43327,-2.27607 36.39374,-25.51492 8.77959,-20.48374 8.81994,-40.96545 0.11022,-55.95217 -7.60961,-13.09378 -16.42313,-18.97849 -27.57666,-19.03316 -3.49087,-0.0171 -7.7753,0.21554 -9.8873,0.61652 -9.47079,1.79804 -14.1809,7.60183 -14.1809,6.20193 0,-0.74902 0.66056,-7.892 -0.5616,-10.43103 -1.21406,-2.52222 -7.28532,-10.06528 -7.28532,-10.21765 0,-0.15236 9.75182,5.4799 14.10782,5.45118 8.57574,-0.0565 10.97744,-1.5326 20.88693,-7.18153 8.69713,-4.95782 8.72501,-6.24836 0.32176,-8.1404 -6.19978,-1.39593 -12.97265,-1.34365 -17.59731,-0.0589 -4.35484,1.20976 -10.17319,6.05754 -11.77042,9.9136 l -1.2312,2.97238 -4.31399,-2.56037 c -4.80994,-2.85472 -9.69363,-7.2954 -13.14469,-7.98561 -2.42159,-0.48431 -2.82146,-1.24938 -2.82146,0.42283 0,1.44184 1.88909,1.86223 5.57856,3.55832 2.772,1.27431 5.68137,4.20677 7.53908,5.38414 3.2748,2.07547 12.07528,17.85673 11.09131,18.8407 -0.30456,0.30457 -6.81747,-5.21747 -10.14838,-6.07081 -8.53597,-2.18681 -19.18606,-0.91606 -25.20983,2.13336 -13.62271,6.89623 -24.83916,29.25376 -23.13427,46.86183 1.27154,13.13239 10.33364,33.88641 18.06526,43.13591 4.86423,5.81918 11.06317,9.37829 17.72988,9.08821 2.86067,-0.12447 7.39667,-0.88317 10.08,-1.68598 z"
         id="path1572"
         sodipodi:nodetypes="ccsssscccsssscccsssscccsssscccssssscccsssscccsssscccssssscccsssscccsssscccsscscsssccssssssssssssssssssssscssscsssscsssssssssssss" />
      <path
         style="fill:#46a71c;stroke-width:0.96"
         d="m 303.3179,139.12846 c -1.0728,-2.79566 10.53734,-6.57794 27.88209,-9.00555 8.07419,-1.13008 8.36785,-4.12549 9.44755,-2.91077 1.76122,1.98146 -14.51606,10.99613 -17.0308,11.84558 -4.76958,1.61109 -19.65829,1.73998 -20.29884,0.0707 z m 17.14209,-15.94425 c 0.693,-0.27731 1.52101,-0.24321 1.84001,0.0758 0.319,0.31899 -0.24801,0.54589 -1.26,0.50421 -1.11836,-0.0461 -1.34583,-0.27355 -0.58001,-0.58 z m 7.68,0 c 0.693,-0.27731 1.52101,-0.24321 1.84001,0.0758 0.31899,0.31899 -0.24801,0.54589 -1.26,0.50421 -1.11836,-0.0461 -1.34583,-0.27355 -0.58001,-0.58 z"
         id="path1570"
         sodipodi:nodetypes="ssssssscsssscss" />
      <path
         style="fill:#cf0b00;stroke-width:0.96"
         d="m 275.0254,248.23032 c -5.97813,-3.00163 -10.67095,-8.52572 -15.61476,-18.38065 -12.01826,-23.95708 -13.32964,-40.17228 -4.71895,-58.34962 7.5513,-15.94096 16.08413,-22.79528 29.25366,-23.49914 9.03343,-0.48279 20.9598,2.142 21.64541,4.76379 0.61209,2.34062 3.52923,2.34074 3.52923,1.4e-4 0,-1.38273 0.93733,-1.92578 4.08,-2.3638 2.244,-0.31276 5.808,-0.89672 7.92,-1.29768 16.89205,-3.20699 28.09877,2.30205 37.46396,18.41664 8.70972,14.98672 8.66937,35.46843 -0.11022,55.95217 -9.96047,23.23885 -19.26427,29.76156 -36.39374,25.51492 -8.33997,-2.0676 -20.50948,-2.18119 -26.95877,-0.25165 -8.12883,2.43203 -14.56847,2.27017 -20.09582,-0.50512 z"
         id="path1568" />
      <path
         style="fill:#1a7c00;stroke-width:0.96"
         d="m 305.45857,133.30319 c 4.4185,-7.91004 13.67596,-11.29359 25.7414,-9.40836 8.30891,1.29828 9.60002,1.74904 9.60002,3.35157 0,1.44683 -1.51678,1.8231 -9.12,2.82196 -9.65449,1.26834 -20.18363,3.59963 -23.72175,5.39962 -1.95897,0.99661 -4.33676,3.3584 -4.65559,3.3584 -0.31882,0 0.93413,-3.33595 2.15592,-5.52319 z"
         id="path1564"
         sodipodi:nodetypes="csssssc" />
      <path
         style="fill:#462900;stroke-width:0.96"
         d="m 154.03636,400.84362 c -1.88468,-1.88467 -2.35636,-3.33467 -2.35636,-7.24363 0,-3.90895 0.47168,-5.35896 2.35636,-7.24363 2.31833,-2.31833 2.62171,-2.35637 18.79385,-2.35637 16.43748,0 16.43748,0 19.24363,2.80616 2.2008,2.20079 2.80616,3.66639 2.80616,6.79384 0,3.12745 -0.60536,4.59305 -2.80616,6.79385 -2.80615,2.80615 -2.80615,2.80615 -19.24363,2.80615 -16.17214,0 -16.47552,-0.038 -18.79385,-2.35637 z m 0,-32.64 c -1.88468,-1.88467 -2.35636,-3.33467 -2.35636,-7.24363 0,-3.90895 0.47168,-5.35896 2.35636,-7.24363 2.31833,-2.31833 2.62171,-2.35637 18.79385,-2.35637 16.43748,0 16.43748,0 19.24363,2.80616 2.2008,2.20079 2.80616,3.66639 2.80616,6.79384 0,3.12745 -0.60536,4.59306 -2.80616,6.79385 -2.80615,2.80615 -2.80615,2.80615 -19.24363,2.80615 -16.17214,0 -16.47552,-0.038 -18.79385,-2.35637 z m 0,-32.63999 c -1.88468,-1.88468 -2.35636,-3.33468 -2.35636,-7.24364 0,-3.90895 0.47168,-5.35896 2.35636,-7.24363 2.31833,-2.31833 2.62171,-2.35637 18.79385,-2.35637 16.43748,0 16.43748,0 19.24363,2.80616 2.2008,2.20079 2.80616,3.66639 2.80616,6.79384 0,3.12745 -0.60536,4.59306 -2.80616,6.79385 -2.80615,2.80615 -2.80615,2.80615 -19.24363,2.80615 -16.17214,0 -16.47552,-0.038 -18.79385,-2.35636 z m 0,-32.64 c -1.88468,-1.88468 -2.35636,-3.33468 -2.35636,-7.24364 0,-3.90895 0.47168,-5.35896 2.35636,-7.24363 2.31833,-2.31833 2.62171,-2.35637 18.79385,-2.35637 16.43748,0 16.43748,0 19.24363,2.80616 2.2008,2.20079 2.80616,3.66639 2.80616,6.79384 0,3.12745 -0.60536,4.59306 -2.80616,6.79385 -2.80615,2.80615 -2.80615,2.80615 -19.24363,2.80615 -16.17214,0 -16.47552,-0.038 -18.79385,-2.35636 z m 0,-32.64 c -1.88468,-1.88468 -2.35636,-3.33468 -2.35636,-7.24364 0,-3.90895 0.47168,-5.35896 2.35636,-7.24363 2.31833,-2.31833 2.62171,-2.35637 18.79385,-2.35637 16.43748,0 16.43748,0 19.24363,2.80616 2.2008,2.20079 2.80616,3.6664 2.80616,6.79384 0,3.12745 -0.60536,4.59306 -2.80616,6.79385 -2.80615,2.80615 -2.80615,2.80615 -19.24363,2.80615 -16.17214,0 -16.47552,-0.038 -18.79385,-2.35636 z m 0,-32.64 C 152.15168,235.75896 151.68,234.30895 151.68,230.4 c 0,-3.90896 0.47168,-5.35896 2.35636,-7.24364 2.31833,-2.31833 2.62171,-2.35636 18.79385,-2.35636 16.43748,0 16.43748,0 19.24363,2.80615 2.2008,2.20079 2.80616,3.6664 2.80616,6.79385 0,3.12744 -0.60536,4.59305 -2.80616,6.79384 C 189.26769,240 189.26769,240 172.83021,240 c -16.17214,0 -16.47552,-0.038 -18.79385,-2.35637 z m 0,-32.64 C 152.15168,203.11896 151.68,201.66895 151.68,197.76 c 0,-3.90896 0.47168,-5.35896 2.35636,-7.24364 2.31833,-2.31833 2.62171,-2.35636 18.79385,-2.35636 16.43748,0 16.43748,0 19.24363,2.80615 2.2008,2.20079 2.80616,3.6664 2.80616,6.79385 0,3.12745 -0.60536,4.59305 -2.80616,6.79384 -2.80615,2.80616 -2.80615,2.80616 -19.24363,2.80616 -16.17214,0 -16.47552,-0.038 -18.79385,-2.35637 z m 0,-32.64 C 152.15168,170.47896 151.68,169.02895 151.68,165.12 c 0,-3.90896 0.47168,-5.35896 2.35636,-7.24364 2.31833,-2.31833 2.62171,-2.35636 18.79385,-2.35636 16.43748,0 16.43748,0 19.24363,2.80615 2.2008,2.20079 2.80616,3.6664 2.80616,6.79385 0,3.12745 -0.60536,4.59305 -2.80616,6.79384 -2.80615,2.80616 -2.80615,2.80616 -19.24363,2.80616 -16.17214,0 -16.47552,-0.038 -18.79385,-2.35637 z M 305.26023,150.6466 c -2.19407,-8.14816 -9.72308,-16.65005 -17.81735,-20.11966 -4.14311,-1.77594 -5.18322,-3.11247 -3.31888,-4.2647 1.52028,-0.93958 10.52858,4.15776 15.39912,8.71358 4.61373,4.31561 10.02093,14.28405 9.4223,17.37045 -0.62159,3.20469 -2.61175,2.2868 -3.68519,-1.69967 z M 154.03636,139.72363 C 152.15168,137.83896 151.68,136.38895 151.68,132.48 c 0,-3.90896 0.47168,-5.35896 2.35636,-7.24363 2.31833,-2.31834 2.62171,-2.35637 18.79385,-2.35637 16.43748,0 16.43748,0 19.24363,2.80615 2.2008,2.20079 2.80616,3.6664 2.80616,6.79385 0,3.12745 -0.60536,4.59305 -2.80616,6.79384 -2.80615,2.80616 -2.80615,2.80616 -19.24363,2.80616 -16.17214,0 -16.47552,-0.038 -18.79385,-2.35637 z m 0,-33.6 c -1.88468,-1.88467 -2.35636,-3.33468 -2.35636,-7.243632 0,-3.908956 0.47168,-5.358961 2.35636,-7.243637 2.31833,-2.318326 2.62171,-2.356363 18.79385,-2.356363 16.43748,0 16.43748,0 19.24363,2.806154 2.2008,2.200798 2.80616,3.666396 2.80616,6.793846 0,3.127452 -0.60536,4.593052 -2.80616,6.793842 -2.80615,2.80616 -2.80615,2.80616 -19.24363,2.80616 -16.17214,0 -16.47552,-0.038 -18.79385,-2.35637 z"
         id="path1562" />
    </g>
  </g>
</svg>
